<mxfile host="65bd71144e">
    <diagram id="8E1NRs0m3ekUrmeRFZuI" name="Page-1">
        <mxGraphModel dx="2155" dy="1188" grid="1" gridSize="10" guides="1" tooltips="1" connect="1" arrows="1" fold="1" page="1" pageScale="1" pageWidth="827" pageHeight="1169" math="0" shadow="0">
            <root>
                <mxCell id="0"/>
                <mxCell id="1" parent="0"/>
                <mxCell id="4" value="TOOLKIT" style="rounded=1;whiteSpace=wrap;html=1;fontSize=23;verticalAlign=top;" vertex="1" parent="1">
                    <mxGeometry x="520" width="440" height="400" as="geometry"/>
                </mxCell>
                <mxCell id="7" value="" style="endArrow=classic;html=1;fontSize=23;" edge="1" parent="1">
                    <mxGeometry width="50" height="50" relative="1" as="geometry">
                        <mxPoint x="601" y="130" as="sourcePoint"/>
                        <mxPoint x="601" y="360" as="targetPoint"/>
                    </mxGeometry>
                </mxCell>
                <mxCell id="8" value="master" style="edgeLabel;html=1;align=center;verticalAlign=middle;resizable=0;points=[];fontSize=20;" vertex="1" connectable="0" parent="7">
                    <mxGeometry x="0.6829" y="-1" relative="1" as="geometry">
                        <mxPoint y="-214" as="offset"/>
                    </mxGeometry>
                </mxCell>
                <mxCell id="14" value="" style="edgeStyle=elbowEdgeStyle;elbow=vertical;endArrow=classic;html=1;fontSize=23;" edge="1" parent="1">
                    <mxGeometry width="50" height="50" relative="1" as="geometry">
                        <mxPoint x="601" y="160" as="sourcePoint"/>
                        <mxPoint x="721" y="360" as="targetPoint"/>
                        <Array as="points">
                            <mxPoint x="681" y="160"/>
                        </Array>
                    </mxGeometry>
                </mxCell>
                <mxCell id="15" value="pages&lt;br&gt;(preview)" style="edgeLabel;html=1;align=center;verticalAlign=middle;resizable=0;points=[];fontSize=20;" vertex="1" connectable="0" parent="1">
                    <mxGeometry x="726" y="110" as="geometry">
                        <mxPoint x="-7" as="offset"/>
                    </mxGeometry>
                </mxCell>
                <mxCell id="16" value="" style="edgeStyle=elbowEdgeStyle;elbow=vertical;endArrow=classic;html=1;fontSize=23;fillColor=#60a917;strokeColor=#2D7600;" edge="1" parent="1">
                    <mxGeometry width="50" height="50" relative="1" as="geometry">
                        <mxPoint x="721" y="200" as="sourcePoint"/>
                        <mxPoint x="851" y="360" as="targetPoint"/>
                        <Array as="points">
                            <mxPoint x="791" y="200"/>
                        </Array>
                    </mxGeometry>
                </mxCell>
                <mxCell id="17" value="toolkit-release" style="edgeLabel;html=1;align=center;verticalAlign=middle;resizable=0;points=[];fontSize=20;fontColor=#00CC00;" vertex="1" connectable="0" parent="1">
                    <mxGeometry x="861" y="110" as="geometry">
                        <mxPoint x="-7" as="offset"/>
                    </mxGeometry>
                </mxCell>
                <mxCell id="18" value="BRAZIL" style="rounded=1;whiteSpace=wrap;html=1;fontSize=23;verticalAlign=top;" vertex="1" parent="1">
                    <mxGeometry x="4.5" y="584" width="440" height="400" as="geometry"/>
                </mxCell>
                <mxCell id="19" value="" style="endArrow=classic;html=1;fontSize=23;" edge="1" parent="1">
                    <mxGeometry width="50" height="50" relative="1" as="geometry">
                        <mxPoint x="246.5" y="714" as="sourcePoint"/>
                        <mxPoint x="246.5" y="944" as="targetPoint"/>
                    </mxGeometry>
                </mxCell>
                <mxCell id="20" value="master" style="edgeLabel;html=1;align=center;verticalAlign=middle;resizable=0;points=[];fontSize=20;" vertex="1" connectable="0" parent="19">
                    <mxGeometry x="0.6829" y="-1" relative="1" as="geometry">
                        <mxPoint y="-214" as="offset"/>
                    </mxGeometry>
                </mxCell>
                <mxCell id="21" value="" style="edgeStyle=elbowEdgeStyle;elbow=vertical;endArrow=classic;html=1;fontSize=23;" edge="1" parent="1">
                    <mxGeometry width="50" height="50" relative="1" as="geometry">
                        <mxPoint x="246.5" y="824" as="sourcePoint"/>
                        <mxPoint x="366.5" y="944" as="targetPoint"/>
                        <Array as="points">
                            <mxPoint x="304.5" y="824"/>
                        </Array>
                    </mxGeometry>
                </mxCell>
                <mxCell id="22" value="pages&lt;br&gt;(preview)" style="edgeLabel;html=1;align=center;verticalAlign=middle;resizable=0;points=[];fontSize=20;" vertex="1" connectable="0" parent="1">
                    <mxGeometry x="371.5" y="694" as="geometry">
                        <mxPoint x="-14" y="1" as="offset"/>
                    </mxGeometry>
                </mxCell>
                <mxCell id="24" value="toolkit-release" style="edgeLabel;html=1;align=center;verticalAlign=middle;resizable=0;points=[];fontSize=20;fontColor=#00CC00;" vertex="1" connectable="0" parent="1">
                    <mxGeometry x="124.5" y="694" as="geometry">
                        <mxPoint x="-1" y="-3" as="offset"/>
                    </mxGeometry>
                </mxCell>
                <mxCell id="26" value="" style="endArrow=classic;html=1;fontSize=20;fillColor=#60a917;strokeColor=#2D7600;" edge="1" parent="1">
                    <mxGeometry width="50" height="50" relative="1" as="geometry">
                        <mxPoint x="124.5" y="714" as="sourcePoint"/>
                        <mxPoint x="124.5" y="944" as="targetPoint"/>
                    </mxGeometry>
                </mxCell>
                <mxCell id="27" value="" style="edgeStyle=elbowEdgeStyle;elbow=horizontal;endArrow=classic;html=1;fontSize=20;" edge="1" parent="1">
                    <mxGeometry width="50" height="50" relative="1" as="geometry">
                        <mxPoint x="124.5" y="744" as="sourcePoint"/>
                        <mxPoint x="244.5" y="784" as="targetPoint"/>
                    </mxGeometry>
                </mxCell>
                <mxCell id="28" value="NIGERIA" style="rounded=1;whiteSpace=wrap;html=1;fontSize=23;verticalAlign=top;" vertex="1" parent="1">
                    <mxGeometry x="524.5" y="584" width="440" height="400" as="geometry"/>
                </mxCell>
                <mxCell id="29" value="" style="endArrow=classic;html=1;fontSize=23;" edge="1" parent="1">
                    <mxGeometry width="50" height="50" relative="1" as="geometry">
                        <mxPoint x="766.5" y="714" as="sourcePoint"/>
                        <mxPoint x="766.5" y="944" as="targetPoint"/>
                    </mxGeometry>
                </mxCell>
                <mxCell id="30" value="master" style="edgeLabel;html=1;align=center;verticalAlign=middle;resizable=0;points=[];fontSize=20;" vertex="1" connectable="0" parent="29">
                    <mxGeometry x="0.6829" y="-1" relative="1" as="geometry">
                        <mxPoint y="-214" as="offset"/>
                    </mxGeometry>
                </mxCell>
                <mxCell id="31" value="" style="edgeStyle=elbowEdgeStyle;elbow=vertical;endArrow=classic;html=1;fontSize=23;" edge="1" parent="1">
                    <mxGeometry width="50" height="50" relative="1" as="geometry">
                        <mxPoint x="766.5" y="824" as="sourcePoint"/>
                        <mxPoint x="886.5" y="944" as="targetPoint"/>
                        <Array as="points">
                            <mxPoint x="824.5" y="824"/>
                        </Array>
                    </mxGeometry>
                </mxCell>
                <mxCell id="32" value="pages&lt;br&gt;(preview)" style="edgeLabel;html=1;align=center;verticalAlign=middle;resizable=0;points=[];fontSize=20;" vertex="1" connectable="0" parent="1">
                    <mxGeometry x="891.5" y="694" as="geometry">
                        <mxPoint x="-19" as="offset"/>
                    </mxGeometry>
                </mxCell>
                <mxCell id="33" value="toolkit-release" style="edgeLabel;html=1;align=center;verticalAlign=middle;resizable=0;points=[];fontSize=20;fontColor=#00CC00;" vertex="1" connectable="0" parent="1">
                    <mxGeometry x="644.5" y="694" as="geometry">
                        <mxPoint x="-1" y="-3" as="offset"/>
                    </mxGeometry>
                </mxCell>
                <mxCell id="34" value="" style="endArrow=classic;html=1;fontSize=20;fontColor=#006600;fillColor=#60a917;strokeColor=#2D7600;" edge="1" parent="1">
                    <mxGeometry width="50" height="50" relative="1" as="geometry">
                        <mxPoint x="644.5" y="714" as="sourcePoint"/>
                        <mxPoint x="644.5" y="944" as="targetPoint"/>
                    </mxGeometry>
                </mxCell>
                <mxCell id="35" value="" style="edgeStyle=elbowEdgeStyle;elbow=horizontal;endArrow=classic;html=1;fontSize=20;" edge="1" parent="1">
                    <mxGeometry width="50" height="50" relative="1" as="geometry">
                        <mxPoint x="644.5" y="744" as="sourcePoint"/>
                        <mxPoint x="764.5" y="784" as="targetPoint"/>
                    </mxGeometry>
                </mxCell>
                <mxCell id="36" value="XXX" style="rounded=1;whiteSpace=wrap;html=1;fontSize=23;verticalAlign=top;" vertex="1" parent="1">
                    <mxGeometry x="1035.5" y="584" width="440" height="400" as="geometry"/>
                </mxCell>
                <mxCell id="37" value="" style="endArrow=classic;html=1;fontSize=23;" edge="1" parent="1">
                    <mxGeometry width="50" height="50" relative="1" as="geometry">
                        <mxPoint x="1277.5" y="714" as="sourcePoint"/>
                        <mxPoint x="1277.5" y="944" as="targetPoint"/>
                    </mxGeometry>
                </mxCell>
                <mxCell id="38" value="master" style="edgeLabel;html=1;align=center;verticalAlign=middle;resizable=0;points=[];fontSize=20;" vertex="1" connectable="0" parent="37">
                    <mxGeometry x="0.6829" y="-1" relative="1" as="geometry">
                        <mxPoint y="-214" as="offset"/>
                    </mxGeometry>
                </mxCell>
                <mxCell id="39" value="" style="edgeStyle=elbowEdgeStyle;elbow=vertical;endArrow=classic;html=1;fontSize=23;" edge="1" parent="1">
                    <mxGeometry width="50" height="50" relative="1" as="geometry">
                        <mxPoint x="1277.5" y="824" as="sourcePoint"/>
                        <mxPoint x="1397.5" y="944" as="targetPoint"/>
                        <Array as="points">
                            <mxPoint x="1335.5" y="824"/>
                        </Array>
                    </mxGeometry>
                </mxCell>
                <mxCell id="40" value="pages&lt;br&gt;(preview)" style="edgeLabel;html=1;align=center;verticalAlign=middle;resizable=0;points=[];fontSize=20;" vertex="1" connectable="0" parent="1">
                    <mxGeometry x="1402.5" y="694" as="geometry">
                        <mxPoint x="-7" as="offset"/>
                    </mxGeometry>
                </mxCell>
                <mxCell id="41" value="toolkit-release" style="edgeLabel;html=1;align=center;verticalAlign=middle;resizable=0;points=[];fontSize=20;fontColor=#00CC00;" vertex="1" connectable="0" parent="1">
                    <mxGeometry x="1155.5" y="694" as="geometry">
                        <mxPoint x="-1" y="-3" as="offset"/>
                    </mxGeometry>
                </mxCell>
                <mxCell id="42" value="" style="endArrow=classic;html=1;fontSize=20;fillColor=#60a917;strokeColor=#2D7600;" edge="1" parent="1">
                    <mxGeometry width="50" height="50" relative="1" as="geometry">
                        <mxPoint x="1155.5" y="714" as="sourcePoint"/>
                        <mxPoint x="1155.5" y="944" as="targetPoint"/>
                    </mxGeometry>
                </mxCell>
                <mxCell id="43" value="" style="edgeStyle=elbowEdgeStyle;elbow=horizontal;endArrow=classic;html=1;fontSize=20;" edge="1" parent="1">
                    <mxGeometry width="50" height="50" relative="1" as="geometry">
                        <mxPoint x="1155.5" y="744" as="sourcePoint"/>
                        <mxPoint x="1275.5" y="784" as="targetPoint"/>
                    </mxGeometry>
                </mxCell>
                <mxCell id="44" value="" style="endArrow=none;dashed=1;html=1;dashPattern=1 3;strokeWidth=2;fontSize=20;fontColor=#00CC00;entryX=0.5;entryY=0;entryDx=0;entryDy=0;exitX=0.5;exitY=1;exitDx=0;exitDy=0;" edge="1" parent="1" source="4" target="18">
                    <mxGeometry width="50" height="50" relative="1" as="geometry">
                        <mxPoint x="210" y="260" as="sourcePoint"/>
                        <mxPoint x="820" y="300" as="targetPoint"/>
                        <Array as="points">
                            <mxPoint x="740" y="480"/>
                            <mxPoint x="225" y="480"/>
                        </Array>
                    </mxGeometry>
                </mxCell>
                <mxCell id="45" value="" style="endArrow=none;dashed=1;html=1;dashPattern=1 3;strokeWidth=2;fontSize=20;fontColor=#00CC00;entryX=0.5;entryY=1;entryDx=0;entryDy=0;exitX=0.5;exitY=0;exitDx=0;exitDy=0;" edge="1" parent="1" source="28" target="4">
                    <mxGeometry width="50" height="50" relative="1" as="geometry">
                        <mxPoint x="770" y="730" as="sourcePoint"/>
                        <mxPoint x="820" y="680" as="targetPoint"/>
                    </mxGeometry>
                </mxCell>
                <mxCell id="46" value="&lt;font color=&quot;#000000&quot;&gt;FORKS&lt;/font&gt;" style="endArrow=none;dashed=1;html=1;dashPattern=1 3;strokeWidth=2;fontSize=20;fontColor=#00CC00;entryX=0.5;entryY=1;entryDx=0;entryDy=0;exitX=0.5;exitY=0;exitDx=0;exitDy=0;" edge="1" parent="1" source="36" target="4">
                    <mxGeometry x="0.7714" width="50" height="50" relative="1" as="geometry">
                        <mxPoint x="770" y="730" as="sourcePoint"/>
                        <mxPoint x="820" y="680" as="targetPoint"/>
                        <Array as="points">
                            <mxPoint x="1256" y="480"/>
                            <mxPoint x="740" y="480"/>
                        </Array>
                        <mxPoint as="offset"/>
                    </mxGeometry>
                </mxCell>
            </root>
        </mxGraphModel>
    </diagram>
</mxfile>